<?xml version="1.0" encoding="UTF-8" standalone="no"?>
<!-- Created with Inkscape (http://www.inkscape.org/) -->

<svg
   xmlns:osb="http://www.openswatchbook.org/uri/2009/osb"
   xmlns:dc="http://purl.org/dc/elements/1.1/"
   xmlns:cc="http://creativecommons.org/ns#"
   xmlns:rdf="http://www.w3.org/1999/02/22-rdf-syntax-ns#"
   xmlns:svg="http://www.w3.org/2000/svg"
   xmlns="http://www.w3.org/2000/svg"
   xmlns:sodipodi="http://sodipodi.sourceforge.net/DTD/sodipodi-0.dtd"
   xmlns:inkscape="http://www.inkscape.org/namespaces/inkscape"
   width="482.96863"
   height="471.64151"
   id="svg5975"
   version="1.1"
   inkscape:version="0.48.2 r9819"
   sodipodi:docname="Blue Knight.svg">
  <defs
     id="defs5977">
    <linearGradient
       id="linearGradient7986"
       osb:paint="solid">
      <stop
         style="stop-color:#ff0000;stop-opacity:1;"
         offset="0"
         id="stop7988" />
    </linearGradient>
  </defs>
  <sodipodi:namedview
     id="base"
     pagecolor="#ffffff"
     bordercolor="#666666"
     borderopacity="1.0"
     inkscape:pageopacity="0.0"
     inkscape:pageshadow="2"
     inkscape:zoom="0.175"
     inkscape:cx="233.71358"
     inkscape:cy="210.36844"
     inkscape:document-units="px"
     inkscape:current-layer="layer1"
     showgrid="false"
     inkscape:window-width="457"
     inkscape:window-height="455"
     inkscape:window-x="664"
     inkscape:window-y="8"
     inkscape:window-maximized="0"
     fit-margin-top="0"
     fit-margin-left="0"
     fit-margin-right="0"
     fit-margin-bottom="0" />
  <metadata
     id="metadata5980">
    <rdf:RDF>
      <cc:Work
         rdf:about="">
        <dc:format>image/svg+xml</dc:format>
        <dc:type
           rdf:resource="http://purl.org/dc/dcmitype/StillImage" />
        <dc:title></dc:title>
      </cc:Work>
    </rdf:RDF>
  </metadata>
  <g
     inkscape:label="Layer 1"
     inkscape:groupmode="layer"
     id="layer1"
     transform="translate(-128.90237,-264.90804)">
    <path
       style="fill:none;stroke:#000000;stroke-width:18;stroke-linecap:butt;stroke-linejoin:miter;stroke-miterlimit:4;stroke-opacity:1;stroke-dasharray:none"
       d="m 300.43855,311.75994 c -13.75057,7.65958 -19.82335,8.1499 -28.79823,11.63075 -11.53385,4.32292 -23.0109,8.64585 -29.28082,12.96877 -16.33421,20.85299 -24.20423,30.12463 -34.39238,38.29225 -4.28192,3.43273 -6.68031,7.65018 -8.88318,11.15934 1.689,44.34759 -1.32667,47.30846 -2.35207,54.74746 1.03206,-2.97903 -9.50059,25.27588 -27.14286,50 -16.26557,20.62527 -27.05728,39.67445 -30.71428,58.94653 -1.31698,14.3691 -3.72607,28.90622 11.93365,40.66351 46.3813,44.1866 82.68498,9.6682 90.44687,-10.83683 8.22142,-15.468 13.14447,-18.56713 18.83141,-24.53082 11.93784,-11.52329 38.40128,-28.31848 69.11983,-40.5125 14.22732,-6.59065 27.81402,-14.14222 39.36494,-24.74747 4.9627,16.13164 4.6419,32.74359 2.22951,49.54569 -4.55258,32.02317 -17.51903,56.81964 -26.55855,72.70613 -12.74234,17.83755 -18.03017,19.54277 -49.28571,50.37509 -26.29151,36.85609 -14.78746,20.32547 -22.72716,34.06164 -4.9851,15.25627 -1.46308,31.09443 0.80094,30.78607 l 322.07618,0.52312 c 3.59488,0.0245 7.72539,0.437 7.65641,-7.29832 0.17802,-12.18427 0.67605,-48.47112 -3.98301,-79.03782 -4.81049,-31.56016 -8.55022,-63.16506 -15.83995,-94.67719 -15.37835,-72.28053 -32.23729,-119.99788 -57.13915,-158.15301 -27.16693,-34.57459 -52.55785,-47.83706 -77.85714,-60 -25.48123,-7.35072 -51.89973,-9.07779 -79.28571,-5 -2.56149,2.284 -4.50932,-9.81789 -15.59052,-27.73694 -3.67127,-5.93668 -5.78422,-13.44894 -6.01662,-21.72735 -25.60878,11.34103 -39.43324,32.29241 -46.6124,37.8519 z"
       id="path5994"
       inkscape:connector-curvature="0"
       sodipodi:nodetypes="cccsccccccccccccccccsccccscc" />
    <path
       style="fill:none;stroke:#000000;stroke-width:18;stroke-linecap:round;stroke-linejoin:miter;stroke-miterlimit:4;stroke-opacity:1;stroke-dasharray:none"
       d="m 368.57143,493.07647 c 23.64213,-22.99968 24.72937,-43.38029 24.28571,-69.28572"
       id="path6504"
       inkscape:connector-curvature="0"
       sodipodi:nodetypes="cc" />
    <path
       sodipodi:type="arc"
       style="fill:#000000;fill-opacity:1;stroke:#000000;stroke-width:18;stroke-linecap:round;stroke-linejoin:round;stroke-miterlimit:4;stroke-opacity:1;stroke-dasharray:none"
       id="path6506"
       sodipodi:cx="250.53572"
       sodipodi:cy="402.00504"
       sodipodi:rx="6.9642859"
       sodipodi:ry="7.5"
       d="m 257.50001,402.00504 c 0,4.14213 -3.11802,7.5 -6.96429,7.5 -3.84627,0 -6.96429,-3.35787 -6.96429,-7.5 0,-4.14214 3.11802,-7.5 6.96429,-7.5 3.84627,0 6.96429,3.35786 6.96429,7.5 z"
       transform="translate(-5.3571429,5)" />
    <path
       style="fill:none;stroke:#000000;stroke-width:10;stroke-linecap:butt;stroke-linejoin:miter;stroke-miterlimit:4;stroke-opacity:1;stroke-dasharray:none"
       d="m 294.28571,313.43361 c -8.67153,-1.47561 -26.81095,-11.9919 -33.12205,-23.64508 -1.93721,-3.10151 -4.88674,-9.28885 -4.95853,-11.14385 -17.22489,21.96509 -8.89866,38.66881 -13.34799,58.00321"
       id="path6508"
       inkscape:connector-curvature="0"
       sodipodi:nodetypes="cccc" />
    <path
       style="fill:#000000;fill-opacity:1;stroke:#000000;stroke-width:1px;stroke-linecap:butt;stroke-linejoin:miter;stroke-opacity:1"
       d="m 165.71429,537.36218 c -5.88341,0.0804 -12.55235,24.41879 -11.96429,35.35714 11.50861,-4.19541 28.18935,-18.84692 26.78572,-22.14285 -1.61213,-5.75947 -3.1802,-12.00586 -14.82143,-13.21429 z"
       id="path6510"
       inkscape:connector-curvature="0"
       sodipodi:nodetypes="cccc" />
    <path
       style="fill:#00aaff;fill-opacity:1;stroke:#00aaff;stroke-width:3;stroke-linecap:round;stroke-linejoin:round;stroke-miterlimit:4;stroke-opacity:1;stroke-dasharray:none"
       d="m 279.78587,709.84119 c 0.5704,-9.55169 1.99561,-12.53554 14.04568,-29.40618 7.30602,-10.22874 12.4872,-15.89013 28.65852,-31.31473 22.28345,-21.25449 28.9453,-29.49608 37.03957,-45.82287 10.14797,-20.46926 16.22469,-37.85573 19.60008,-56.0789 2.13718,-11.5383 3.04841,-38.29323 1.57265,-46.17524 -1.10156,-5.88346 -1.06551,-6.07457 1.71512,-9.09137 7.36533,-7.99094 13.11571,-18.51788 16.40053,-30.02373 2.42586,-8.49714 4.26237,-35.58588 2.77965,-41.00017 -1.23699,-4.517 -4.8439,-6.70515 -9.92847,-6.02316 -6.77304,0.90845 -7.65259,2.93885 -8.43362,19.46853 -1.19895,25.37467 -5.24867,34.9656 -19.83224,46.96864 -13.05368,10.74384 -21.24611,15.91884 -36.00858,22.74594 -39.1047,18.08449 -58.82704,29.97689 -74.39383,44.85885 -9.74475,9.31603 -16.11869,17.73315 -21.41303,28.27699 -10.06125,20.03727 -30.49576,29.27801 -49.2375,22.26583 -10.97646,-4.10682 -27.34063,-16.64162 -32.072,-24.56683 -2.26364,-3.79169 -2.51139,-5.24437 -2.39038,-14.01607 0.0945,-6.85268 0.80198,-12.00004 2.36015,-17.17259 2.68191,-8.90292 10.40039,-23.98784 17.21795,-33.65061 15.10542,-21.40941 22.24915,-33.02719 29.8147,-48.48732 4.62196,-9.44493 8.93082,-19.44544 9.57523,-22.22336 0.64442,-2.77792 1.41354,-15.62758 1.70916,-28.55481 l 0.53749,-23.50404 10.06407,-9.83099 c 5.53524,-5.40704 14.45999,-15.21757 19.83279,-21.80116 11.38646,-13.9525 12.10683,-14.40559 37.67861,-23.69849 25.19132,-9.15465 28.85281,-11.28253 41.28555,-23.99324 12.07325,-12.34316 21.31541,-19.83356 21.98678,-17.81941 1.5021,4.50627 19.9771,39.52029 21.86955,41.44739 2.19448,2.23465 2.60658,2.29487 8.26852,1.20833 10.942,-2.09981 35.11369,-2.42612 48.38533,-0.65318 17.59128,2.34999 23.82299,4.19375 37.3489,11.05031 22.43639,11.37348 41.56188,26.21849 55.86527,43.36208 31.10289,37.27889 57.37051,118.60546 73.33103,227.03853 2.49422,16.94531 5.04419,35.12731 5.66661,40.40443 1.10498,9.36865 2.97025,44.73975 3.02313,57.32783 l 0.0265,6.31345 -157.20852,0 -157.2085,0 0.46752,-7.82868 z M 157.64225,572.08486 c 10.65056,-5.36762 23.97729,-16.97444 23.9287,-20.84053 -0.0403,-3.20161 -3.80344,-10.16371 -6.42068,-11.8786 -3.54807,-2.32478 -10.29701,-3.11967 -12.30913,-1.44976 -2.58742,2.14736 -5.22724,8.15341 -7.34093,16.70184 -2.08253,8.42241 -3.60295,19.6104 -2.66501,19.6104 0.30478,0 2.46795,-0.96451 4.80705,-2.14335 z m 95.68199,-150.64222 c 5.37234,-3.65639 7.39022,-7.16178 7.84236,-13.62349 0.34064,-4.86816 0.0165,-6.39722 -1.9789,-9.33344 -7.19361,-10.58566 -20.81121,-10.94146 -27.44089,-0.71697 -7.17427,11.06436 0.56091,25.94674 13.48593,25.94674 3.26508,0 5.79693,-0.71118 8.0915,-2.27284 z"
       id="path6532"
       inkscape:connector-curvature="0" />
    <path
       style="fill:#00aaff;fill-opacity:1;stroke:#00aaff;stroke-width:3.5;stroke-linecap:round;stroke-linejoin:round;stroke-miterlimit:4;stroke-opacity:1;stroke-dasharray:none"
       d="m 250.55237,311.30978 c 0.48392,-9.40587 2.93827,-19.96624 4.62432,-19.89711 0.36446,0.0149 1.79907,1.90123 3.18803,4.19176 2.33049,3.84319 14.49081,14.97396 16.35899,14.97396 0.44749,0 0.81361,0.38262 0.81361,0.85026 0,0.46764 -1.93192,1.42466 -4.29315,2.12671 -2.36123,0.70205 -8.1024,2.80775 -12.75815,4.67935 l -8.46501,3.4029 0.53136,-10.32783 z"
       id="path6538"
       inkscape:connector-curvature="0" />
    <path
       style="fill:#ffffff;fill-opacity:1;stroke:#00aaff;stroke-width:1px;stroke-linecap:butt;stroke-linejoin:miter;stroke-opacity:1"
       d="m 465.71429,379.86217 c 52.12581,145.91955 21.92075,255.03236 -87.85714,328.57143 l 117.5,0 c 75.71169,-161.08207 2.77783,-291.09681 -29.64286,-328.57143 z"
       id="path6540"
       inkscape:connector-curvature="0"
       sodipodi:nodetypes="cccc" />
  </g>
</svg>
