<?xml version="1.0" encoding="UTF-8" standalone="no"?>
<!-- Created with Inkscape (http://www.inkscape.org/) -->

<svg
   xmlns:dc="http://purl.org/dc/elements/1.1/"
   xmlns:cc="http://creativecommons.org/ns#"
   xmlns:rdf="http://www.w3.org/1999/02/22-rdf-syntax-ns#"
   xmlns:svg="http://www.w3.org/2000/svg"
   xmlns="http://www.w3.org/2000/svg"
   xmlns:sodipodi="http://sodipodi.sourceforge.net/DTD/sodipodi-0.dtd"
   xmlns:inkscape="http://www.inkscape.org/namespaces/inkscape"
   width="292.12305"
   height="581.42737"
   id="svg2"
   version="1.1"
   inkscape:version="0.48.2 r9819"
   sodipodi:docname="Blue Pawn.svg"
   inkscape:export-filename="C:\Users\Dxs263\Desktop\Chess Pieces\Blue Pawn.png"
   inkscape:export-xdpi="15.410976"
   inkscape:export-ydpi="15.410976">
  <defs
     id="defs4">
    <inkscape:perspective
       sodipodi:type="inkscape:persp3d"
       inkscape:vp_x="0 : 526.18109 : 1"
       inkscape:vp_y="0 : 1000 : 0"
       inkscape:vp_z="744.09448 : 526.18109 : 1"
       inkscape:persp3d-origin="372.04724 : 350.78739 : 1"
       id="perspective3771" />
  </defs>
  <sodipodi:namedview
     id="base"
     pagecolor="#ffffff"
     bordercolor="#666666"
     borderopacity="1.0"
     inkscape:pageopacity="0.0"
     inkscape:pageshadow="2"
     inkscape:zoom="0.1767767"
     inkscape:cx="103.79973"
     inkscape:cy="324.23085"
     inkscape:document-units="px"
     inkscape:current-layer="layer1"
     showgrid="false"
     inkscape:window-width="465"
     inkscape:window-height="455"
     inkscape:window-x="1143"
     inkscape:window-y="513"
     inkscape:window-maximized="0"
     fit-margin-top="0"
     fit-margin-left="0"
     fit-margin-right="0"
     fit-margin-bottom="0" />
  <metadata
     id="metadata7">
    <rdf:RDF>
      <cc:Work
         rdf:about="">
        <dc:format>image/svg+xml</dc:format>
        <dc:type
           rdf:resource="http://purl.org/dc/dcmitype/StillImage" />
        <dc:title></dc:title>
      </cc:Work>
    </rdf:RDF>
  </metadata>
  <g
     inkscape:label="Layer 1"
     inkscape:groupmode="layer"
     id="layer1"
     transform="translate(-226.6483,-215.36218)">
    <path
       sodipodi:type="arc"
       style="fill:#00aaff;fill-opacity:1;fill-rule:evenodd;stroke:#000000;stroke-width:18;stroke-linecap:butt;stroke-linejoin:miter;stroke-miterlimit:4;stroke-opacity:1;stroke-dasharray:none"
       id="path2993"
       sodipodi:cx="371"
       sodipodi:cy="327.36218"
       sodipodi:rx="103"
       sodipodi:ry="103"
       d="m 474,327.36218 c 0,56.88533 -46.11467,103 -103,103 -56.88533,0 -103,-46.11467 -103,-103 0,-56.88533 46.11467,-103 103,-103 56.88533,0 103,46.11467 103,103 z" />
    <path
       style="fill:none;stroke:#000000;stroke-width:18;stroke-linecap:butt;stroke-linejoin:round;stroke-miterlimit:4;stroke-opacity:1;stroke-dasharray:none"
       d="m 328.94454,422.12474 c -25.53233,1.602 -60.91858,19.62269 -53.94454,26.23744 54.78739,9.20268 52,24 52,24 2.24842,44.93611 -3.21813,95.94686 -13.58054,119.16122 -4.23097,9.4784 -19.06413,5.85396 -18.05035,31.95641 -37.34699,36.1193 -62.15283,75.0272 -52.91759,87.00305 24.4459,5.73726 21.01048,26.30394 -3.42027,30.91057 -6.37877,11 -3.93112,24 9,31"
       id="path3767"
       inkscape:connector-curvature="0"
       sodipodi:nodetypes="cccscccc" />
    <path
       sodipodi:nodetypes="cccsccccc"
       inkscape:connector-curvature="0"
       id="path3769"
       d="m 415.43832,420.77119 c 25.53233,1.602 62.86313,19.97624 55.88909,26.59099 -54.45833,9.21156 -52,24 -52,24 -2.24842,44.93611 3.21813,95.94686 13.58054,119.16122 4.23097,9.4784 19.06413,5.85396 18.05035,31.95641 37.34699,36.1193 62.15283,75.0272 52.91759,87.00305 -24.4459,5.73726 -20.97923,26.27269 3.45152,30.87932 6.37877,11 -0.31888,23.5 -13.25,30.5 -113.86469,22.48185 -125.00578,22.48909 -249.03033,0.50184"
       style="fill:none;stroke:#000000;stroke-width:18;stroke-linecap:butt;stroke-linejoin:round;stroke-miterlimit:4;stroke-opacity:1;stroke-dasharray:none" />
    <path
       style="fill:#00aaff;fill-opacity:1;stroke-width:10;stroke-linejoin:miter;stroke-miterlimit:4;stroke-dasharray:none"
       d="m 346.84308,782.41185 c -6.21862,-0.32784 -2.6198,-0.30707 -11.65651,-1.08121 -18.26136,-1.56439 -43.73726,-5.58722 -67.37828,-9.77739 -17.30532,-3.06723 -20.60544,-4.12006 -23.45072,-7.36841 -2.49267,-2.84579 -4.03027,-7.95583 -3.70342,-12.41548 0.14056,-1.91787 0.61203,-4.82929 1.29884,-5.67232 1.27575,-1.56593 4.60078,-1.65829 9.08662,-3.83455 8.80396,-4.27115 11.44766,-8.51709 12.4443,-15.94756 1.01169,-7.54271 -3.26629,-13.69253 -11.69492,-17.77276 -6.03092,-2.91952 -6.61501,-0.96396 -6.34343,-5.14996 0.38646,-5.95666 3.30975,-14.25464 8.95982,-23.41548 8.1775,-13.25873 21.23403,-28.48546 33.83471,-42.82274 10.34811,-11.77427 12.15577,-11.56879 12.15577,-16.17105 0,-7.19663 0.72899,-12.941 6.29971,-17.05177 5.5176,-4.07158 8.11827,-4.36667 11.04034,-10.07646 2.43087,-4.74999 3.75446,-9.61128 5.30123,-15.67185 1.20985,-4.74049 4.1305,-17.96409 5.02959,-23.89612 2.37262,-15.65408 3.5107,-27.44671 4.03211,-50.46121 l 0.27718,-22.08596 -0.59935,-12.47486 -3.27989,-5.694 c -1.09077,-1.89362 -7.95951,-6.5502 -16.49083,-10.59607 -5.23131,-2.48089 -11.83776,-4.23216 -17.3705,-5.47596 -6.02808,-1.35516 -13.33515,-2.73465 -13.33515,-3.21831 0,-1.72251 17.32951,-10.7138 30.02729,-14.69366 7.89138,-2.47339 39.57021,-14.66919 44.40918,-12.78205 13.75043,0.68443 25.4598,-0.98314 40.01006,0.4482 l 25.78827,7.03808 c 3.66401,0.99997 27.07384,9.61238 32.41905,12.55149 l 7.54212,4.14711 3.32964,2.46426 -7.68978,1.63565 c -11.17495,2.37697 -20.70439,5.70563 -27.88161,9.22483 -8.08603,3.96482 -11.9825,8.40163 -13.28901,12.32742 -1.17192,3.52139 -1.58743,6.56776 -1.67473,8.0908 -0.12169,2.12273 -0.37428,3.77539 -0.31741,6.82117 0.0833,4.45905 -0.17912,11.91237 0.0481,19.03353 0.31272,9.8007 0.82321,18.6512 1.25738,26.0393 0.45296,7.70778 1.59893,15.62177 2.32193,21.80671 0.90083,7.70619 2.19392,14.60962 3.93741,22.44951 2.25946,10.16008 4.76441,17.14622 7.12425,21.91512 1.65322,3.3409 3.88121,5.06499 6.05389,7.08687 0.72186,0.67176 4.84515,2.66319 5.66167,3.36693 5.84843,5.04062 5.68508,9.2267 5.70165,18.27011 0.006,3.24683 1.90789,5.04613 6.80753,9.80483 10.74818,10.43901 22.19353,23.72259 31.02048,35.9656 9.77593,13.55923 16.4203,25.84214 17.09678,31.57099 0.30178,2.55562 0.95077,5.76707 -0.94318,6.66926 -1.96959,0.93822 -5.65989,2.62216 -5.65989,2.62216 -5.60291,3.13428 -5.81251,2.78089 -7.98117,5.26626 -7.60442,8.71494 -1.88222,23.92311 13.01799,29.91748 1.48234,0.59635 5.89391,0.58692 5.79499,2.70969 -0.0871,1.86875 -0.0138,6.14659 -0.36738,7.46994 -1.41352,5.29083 -6.12038,10.12768 -10.54346,13.0258 -4.2037,2.75437 -63.76948,13.26385 -86.1534,15.45554 -22.16836,2.17058 -22.5624,2.26061 -43.3884,1.16269 l -8.3125,-0.125 z"
       id="path3773"
       inkscape:connector-curvature="0"
       sodipodi:nodetypes="csssssssssssssssssccsssssccssccsssssssssssscsssssssssssccc" />
  </g>
</svg>
