<?xml version="1.0" encoding="UTF-8" standalone="no"?>
<!-- Created with Inkscape (http://www.inkscape.org/) -->

<svg
   xmlns:dc="http://purl.org/dc/elements/1.1/"
   xmlns:cc="http://creativecommons.org/ns#"
   xmlns:rdf="http://www.w3.org/1999/02/22-rdf-syntax-ns#"
   xmlns:svg="http://www.w3.org/2000/svg"
   xmlns="http://www.w3.org/2000/svg"
   xmlns:sodipodi="http://sodipodi.sourceforge.net/DTD/sodipodi-0.dtd"
   xmlns:inkscape="http://www.inkscape.org/namespaces/inkscape"
   width= "629.81134" 
   height="450.0845"
   id="svg4360"
   version="1.1"
   inkscape:version="0.48.3.1 r9886"
   sodipodi:docname="Blue Elephant.svg">
  <defs
     id="defs4362" />
  <sodipodi:namedview
     id="base"
     pagecolor="#ffffff"
     bordercolor="#666666"
     borderopacity="1.0"
     inkscape:pageopacity="0.0"
     inkscape:pageshadow="2"
     inkscape:zoom="1.4"
     inkscape:cx="622.47936"
     inkscape:cy="240.10752"
     inkscape:document-units="px"
     inkscape:current-layer="layer1"
     showgrid="false"
     inkscape:window-width="840"
     inkscape:window-height="973"
     inkscape:window-x="841"
     inkscape:window-y="24"
     inkscape:window-maximized="0"
     fit-margin-top="0"
     fit-margin-left="0"
     fit-margin-right="0"
     fit-margin-bottom="0" />
  <metadata
     id="metadata4365">
    <rdf:RDF>
      <cc:Work
         rdf:about="">
        <dc:format>image/svg+xml</dc:format>
        <dc:type
           rdf:resource="http://purl.org/dc/dcmitype/StillImage" />
        <dc:title />
      </cc:Work>
    </rdf:RDF>
  </metadata>
  <g
     inkscape:label="Layer 1"
     inkscape:groupmode="layer"
     id="layer1"
     transform="translate(-54.526388,-288.34909)">
    <path
       style="fill:none;stroke:#000000;stroke-width:15;stroke-linecap:butt;stroke-linejoin:miter;stroke-miterlimit:4;stroke-opacity:1;stroke-dasharray:none"
       d="m 392.62782,330.61608 c 6.76453,-14.89445 40.54734,-36.15531 81.63416,-34.69566 14.68427,-0.13951 40.02905,2.29813 57.0266,5.85173 14.69976,3.48723 13.72687,2.70065 46.58542,11.37611 10.6842,3.11907 20.49218,4.38836 35.25676,16.12159 38.67224,33.26252 52.2051,91.69642 55.61924,105.7709 5.91354,22.91191 4.86985,46.75145 3.81003,70.59314 -2.45518,15.75583 -0.99989,21.19849 -16.59514,54.26276 -7.94284,13.95318 -15.21618,23.04623 -25.2506,33.17982 -34.67552,24.6925 -44.09856,34.65303 -57.85715,47.14286 -7.88176,10.03142 -5.86467,17.33212 0,23.57142 5.49072,2.76809 10.91023,5.58366 15,9.28572 7.89625,10.93842 1.85781,19.87769 -2.85714,25 -10.30129,10.18513 -24.45207,14.30385 -34.64286,13.75 -18.85885,-11.71574 -27.43607,-29.97786 -33.92857,-48.57143 -3.60298,-16.36099 0.1534,-31.61347 8.92857,-40.35714 13.31474,-12.93899 23.91405,-26.65381 33.92857,-40.53572 1.35115,-3.8378 5.77911,-7.91572 -2.32143,-14.46429 -13.28566,-12.42657 -45.9227,11.92996 -54.81688,16.23528 -18.02147,8.43764 -24.99388,18.52052 -27.93123,28.66004 -3.3183,11.35385 -4.90458,24.95078 -5.64474,35.28326 -2.23633,19.648 6.06774,31.75946 22.85714,67.32143 4.85351,9.67745 -9.52614,10.04413 -15.17857,13.03571 -17.97619,2.33488 -35.95238,2.90275 -53.92857,1.42857 -41.97663,-3.49394 -44.66542,-9.81954 -43.39286,-11.96429 -0.0539,-10.59071 1.11234,-22.51651 4.46429,-33.57142 1.94601,-7.79762 2.02394,-35.77381 -0.35714,-44.64286 -0.46982,-2.88771 -4.76114,-17.49763 -16.78572,-25.53571 -6.08405,-1.51309 -15.66216,1.94125 -22.56138,4.81583 -7.22644,3.01092 -15.7135,3.6689 -23.86719,3.75559 -12.86855,-0.18468 -23.7341,-1.34924 -34.28572,-6.42856 -5.84301,-3.36794 -9.61535,-6.68268 -15,-8.03572 -18.05357,2.78926 -22.22066,19.78407 -22.46034,28.57519 -0.16201,5.94219 0.71024,9.64347 2.46034,19.99624 1.83396,10.95749 7.79506,20.37059 11.47591,27.11802 10.10857,15.36542 17.35749,30.58335 16.38123,36.4534 -7.81412,7.93325 -24.03068,10.49431 -42.85714,10.53572 -34.35752,-0.20218 -68.53303,-1.16159 -82.67857,-12.67857 -6.51641,-4.9249 -11.34215,-12.64414 -9.99999,-20.35715 2.29248,-14.28407 4.43228,-28.87352 6.24999,-44.10713 2.5066,-13.80953 3.30952,-27.61905 4.46429,-41.42858 0.99314,-22.1705 2.241,-24.61262 -3.21429,-37.14286 -5.22861,-4.9242 -8.11108,-4.46093 -33.03571,-45.89285 -7.03577,-13.28268 -12.04558,-27.70618 -16.25,-44.28572 -5.76735,10.04122 -12.640661,15.34842 -18.392858,22.85715 -5.654762,5.20778 -15.059524,8.36746 -16.964286,5.89285 -4.482082,-2.99579 -4.208655,-13.32756 -2.678572,-21.96428 4.573218,-22.58945 12.690529,-42.58762 22.5,-60.89286 16.874376,-26.76334 28.159806,-52.49218 80.892856,-85.89285 29.15173,-17.84107 65.64448,-31.96135 129.28572,-32.32143 26.23162,0.005 51.37802,2.33621 74.28571,9.46428 9.99255,2.28425 16.1165,5.24863 25.65826,8.88525"
       id="path4379"
       inkscape:connector-curvature="0"
       sodipodi:nodetypes="ccccccccccccccccccccccccccccscccsccccccccccccccccccc" />
    <path
       style="fill:none;stroke:#000000;stroke-width:15;stroke-linecap:round;stroke-linejoin:miter;stroke-miterlimit:4;stroke-opacity:1;stroke-dasharray:none"
       d="m 392.94934,330.10311 c -10.24478,14.56177 -16.35267,30.89649 -17.17259,49.49748 -2.14043,48.29439 5.65587,56.84183 11.11167,74.75129 11.17694,29.01899 29.26732,37.89687 45.45687,46.46701 13.7819,7.32088 27.78492,14.05813 45.45686,11.11168 17.83312,-2.90352 27.83382,-11.81969 32.32489,-22.72843 5.60168,-12.16997 6.82036,-27.09777 11.11167,-41.92133"
       id="path4889"
       inkscape:connector-curvature="0"
       sodipodi:nodetypes="ccccccc" />
    <path
       sodipodi:type="arc"
       style="fill:#000000;fill-opacity:1;stroke:#000000;stroke-width:15;stroke-linecap:round;stroke-linejoin:round;stroke-miterlimit:4;stroke-opacity:1;stroke-dasharray:none"
       id="path4893"
       sodipodi:cx="597.37897"
       sodipodi:cy="449.42737"
       sodipodi:rx="6.1871843"
       sodipodi:ry="6.1871843"
       d="m 603.56615,449.42737 c 0,3.41709 -2.7701,6.18718 -6.18718,6.18718 -3.41709,0 -6.18719,-2.77009 -6.18719,-6.18718 0,-3.41709 2.7701,-6.18719 6.18719,-6.18719 3.41708,0 6.18718,2.7701 6.18718,6.18719 z"
       transform="translate(6.5659916,6.5659916)" />
    <path
       style="fill:#ffffff;stroke:#000000;stroke-width:8;stroke-linecap:round;stroke-linejoin:round;stroke-miterlimit:4;stroke-opacity:1;stroke-dasharray:none"
       d="m 606.09153,519.00164 c -15.50894,1.62014 -19.25974,13.7736 -18.68782,29.7995 15.31769,15.45066 35.02665,14.98348 53.15935,17.38998 14.0186,1.86049 26.60429,2.48772 39.77468,1.80292 -27.92791,-10.90368 -50.92162,-16.27194 -74.24621,-48.9924 z"
       id="path4895"
       inkscape:connector-curvature="0"
       sodipodi:nodetypes="ccscc" />
    <path
       style="fill:#00aaff;fill-opacity:1;stroke:#000000;stroke-width:5.71428585;stroke-linecap:round;stroke-linejoin:round;stroke-miterlimit:4;stroke-opacity:1;stroke-dasharray:none"
       d="m 214.83327,722.63235 c -25.62658,-0.74476 -37.9594,-2.36912 -49.18452,-6.47812 -7.33465,-2.68488 -13.63327,-8.44868 -14.74023,-13.48865 -0.24676,-1.1235 0.52706,-8.73882 1.71962,-16.92292 6.93631,-47.60172 8.52118,-62.40428 9.1261,-85.23732 l 0.40686,-15.35714 -2.27961,-6.77992 c -2.11046,-6.27682 -2.66412,-7.17787 -7.46141,-12.14286 -5.84593,-6.05028 -11.32666,-13.74526 -21.62594,-30.36294 -11.28794,-18.21285 -14.97121,-27.04075 -22.05817,-52.86805 -2.26214,-8.244 -4.33386,-15.24121 -4.60382,-15.54936 -0.26997,-0.30815 -3.51379,3.99744 -7.208507,9.56798 -9.911875,14.94418 -22.896362,29.20658 -26.589664,29.20658 -1.068565,0 -0.117104,-10.72733 1.602995,-18.07311 3.186306,-13.60729 10.631241,-33.89805 17.315406,-47.19219 4.050281,-8.05561 17.76741,-29.88742 24.34295,-38.74357 22.60478,-30.44484 63.82644,-59.13603 101.44702,-70.60937 33.91209,-10.34233 81.5605,-13.69673 121.19127,-8.53174 14.93418,1.94634 44.31394,9.33524 44.31394,11.14479 0,0.33676 -1.08804,2.7739 -2.41786,5.41588 -3.33468,6.62505 -6.57325,16.06737 -8.33599,24.30431 -1.16802,5.45794 -1.56928,10.59213 -1.89116,24.19794 -0.62399,26.37592 1.09688,38.73409 8.2621,59.33303 6.96378,20.01984 12.56289,29.84111 22.92717,40.21603 7.31255,7.32004 14.49658,12.14863 30.22743,20.31673 13.87772,7.20586 21.04595,9.958 30.01761,11.52481 20.27711,3.5412 42.52014,-4.14911 52.94,-18.30349 5.45514,-7.41027 7.98718,-14.95575 14.6213,-43.57148 2.58467,-11.14874 2.61778,-11.6076 1.03135,-14.29322 -2.8073,-4.75237 -10.51006,-4.81641 -13.25674,-0.1102 -0.61098,1.04688 -2.78329,9.0918 -4.82735,17.8776 -3.99908,17.18888 -5.25071,21.3678 -8.06076,26.91316 -5.35596,10.56949 -20.25446,17.52311 -35.26204,16.45794 -10.13545,-0.71936 -19.55885,-4.40603 -37.884,-14.82116 -21.16215,-12.02756 -29.3164,-22.64471 -38.4647,-50.0826 -5.64612,-16.93403 -6.35387,-21.97853 -6.3856,-45.51295 -0.0282,-20.93449 0.37511,-24.81842 3.65992,-35.24389 3.56123,-11.30283 13.11271,-27.91493 18.9214,-32.90844 10.45716,-8.98965 23.28676,-15.1798 40.56841,-19.57388 7.32007,-1.86122 8.12682,-1.91609 27.89522,-1.89735 21.75594,0.0206 31.81191,0.88209 50.61243,4.33582 13.28962,2.44136 58.53985,13.92388 65.47659,16.61508 7.6665,2.97433 15.25166,8.07204 22.23393,14.94262 20.37893,20.05293 36.01525,50.61803 46.30552,90.51575 5.17424,20.0617 5.7405,25.17995 5.65026,51.07143 -0.0874,25.06718 -1.24471,35.51259 -5.31483,47.96764 -2.17205,6.64673 -7.57855,19.83978 -8.55362,20.87273 -0.72395,0.76691 -10.06518,-4.18872 -16.41028,-8.70585 -6.23729,-4.44037 -16.09934,-14.0271 -21.55435,-20.95259 -2.45102,-3.11173 -5.17562,-5.83821 -6.05468,-6.05883 -2.11192,-0.53006 -8.17879,0.8067 -11.61329,2.55885 -3.8126,1.94504 -8.29211,7.2735 -10.14709,12.07013 -1.18776,3.07132 -1.63902,6.09081 -1.89153,12.65652 l -0.33162,8.62288 3.83199,3.3832 c 9.78684,8.64063 20.66147,12.46584 42.6256,14.99377 4.83647,0.55664 8.9801,1.19858 9.20805,1.42653 0.22795,0.22795 -0.8338,1.94941 -2.35944,3.82545 -6.68071,8.21513 -12.05991,13.21695 -22.42651,20.85313 -23.22601,17.10861 -45.36085,36.43742 -50.03217,43.68961 -5.76463,8.94955 -5.47402,18.98658 0.79308,27.39074 1.77468,2.37984 4.00171,4.10659 8.06248,6.25131 7.93147,4.18906 10.46091,6.7339 10.46091,10.5246 0,3.97495 -1.30757,6.29486 -5.92815,10.5178 -4.78028,4.36891 -11.64148,7.809 -18.57658,9.31397 l -5.29348,1.14873 -3.13661,-2.16436 c -14.60273,-10.07636 -29.1243,-38.85877 -27.3724,-54.25335 1.16909,-10.27323 3.37554,-14.49056 12.79704,-24.45985 9.15964,-9.69219 16.47933,-18.41679 24.56146,-29.27566 9.7489,-13.09828 11.2543,-19.6113 6.25261,-27.05149 -2.7047,-4.02332 -8.09385,-8.2129 -12.12218,-9.4239 -3.6867,-1.1083 -12.04389,-1.06334 -16.64514,0.0895 -8.82868,2.2121 -20.24216,7.9584 -48.46514,24.40055 -6.86676,4.00044 -15.74195,13.04626 -19.07597,19.44272 -4.17944,8.01844 -7.30485,21.58107 -9.109,39.5283 -2.22709,22.15448 -0.51038,28.87344 16.34171,63.95906 3.18868,6.63875 5.71144,12.15506 5.60614,12.25847 -1.05225,1.03331 -9.35494,3.35462 -14.47716,4.0476 -8.76119,1.1853 -43.53393,1.16211 -53.57143,-0.0357 -10.09633,-1.20484 -18.92397,-2.73309 -24.10715,-4.17344 l -4.10714,-1.14133 0.0131,-4.01302 c 0.0161,-4.93015 1.7287,-16.92414 3.17382,-22.2273 1.9618,-7.19918 2.73785,-18.28905 2.27427,-32.5 -0.60602,-18.57753 -2.43903,-25.87339 -9.19256,-36.58885 -3.14356,-4.98772 -11.96684,-13.55778 -14.65228,-14.23178 -0.96628,-0.24252 -4.53774,-0.26884 -7.9366,-0.0585 -4.88573,0.30236 -8.48142,1.15671 -17.1718,4.08006 -10.31525,3.46995 -11.5467,3.72152 -20,4.08561 -16.72494,0.72036 -27.97742,-1.71237 -39.52086,-8.54419 -8.37561,-4.95698 -11.01838,-5.81372 -16.00984,-5.19008 -11.90656,1.48763 -23.12816,12.68 -26.3304,26.2618 -2.1375,9.0659 -0.61623,27.0756 3.33416,39.47163 1.87101,5.87107 7.54211,17.1675 13.22502,26.34325 4.14912,6.69926 11.6329,21.547 11.64457,23.10269 0.004,0.48098 -0.99893,1.39447 -2.22785,2.02998 -8.12118,4.19962 -22.60049,5.45632 -52.76559,4.57965 l 1e-5,2e-5 z m 395.5359,-254.3564 c 4.15131,-2.00962 6.75818,-5.99042 7.16929,-10.94784 0.41945,-5.05801 -0.77178,-8.3433 -4.12304,-11.37098 -4.06009,-3.66803 -8.89309,-4.80435 -13.65413,-3.21029 -11.8721,3.97494 -13.20654,19.77579 -2.16298,25.61137 3.52061,1.86035 8.8286,1.82616 12.77086,-0.0823 z"
       id="path4897"
       inkscape:connector-curvature="0" />
    <path
       style="fill:#00aaff;fill-opacity:1;stroke:#00aaff;stroke-width:1px;stroke-linecap:butt;stroke-linejoin:miter;stroke-opacity:1"
       d="m 497.32143,489.50504 c 7.82365,-8.11842 16.02858,-18.17501 29.46429,-54.82143 1.33974,40.35527 -4.6735,65.77482 -18.57143,75.17857 l 67.67857,-50.35714 -43.75,-32.14286 -55,11.96429 z"
       id="path4899"
       inkscape:connector-curvature="0"
       sodipodi:nodetypes="ccccccc" />
    <path
       style="fill:#ffffff"
       d="m 589.26508,273.89884 c -2.75,-0.33644 -9.33929,-1.13715 -14.64286,-1.77934 -16.70509,-2.02278 -25.66429,-4.8976 -33.84265,-10.85938 l -3.4855,-2.54082 0.36236,-5.76402 c 0.55355,-8.80505 2.93237,-13.31261 8.54448,-16.19067 1.45756,-0.74748 2.78743,-1.35906 2.95525,-1.35906 0.16783,0 2.071,2.16964 4.22926,4.82143 11.16425,13.71715 23.37759,23.31166 39.45108,30.99183 6.7358,3.21847 6.98004,3.40951 4.28572,3.35236 -1.57143,-0.0333 -5.10714,-0.33589 -7.85714,-0.67233 l 0,0 z"
       id="path2988"
       inkscape:connector-curvature="0"
       transform="translate(54.526388,288.34909)" />
  </g>
</svg>
