<?xml version="1.0" encoding="UTF-8" standalone="no"?>
<!-- Created with Inkscape (http://www.inkscape.org/) -->

<svg
   xmlns:dc="http://purl.org/dc/elements/1.1/"
   xmlns:cc="http://creativecommons.org/ns#"
   xmlns:rdf="http://www.w3.org/1999/02/22-rdf-syntax-ns#"
   xmlns:svg="http://www.w3.org/2000/svg"
   xmlns="http://www.w3.org/2000/svg"
   xmlns:sodipodi="http://sodipodi.sourceforge.net/DTD/sodipodi-0.dtd"
   xmlns:inkscape="http://www.inkscape.org/namespaces/inkscape"
   width="390.76678"
   height="431.02634"
   id="svg4360"
   version="1.1"
   inkscape:version="0.48.3.1 r9886"
   sodipodi:docname="Yellow_Elephant.svg">
  <defs
     id="defs4362" />
  <sodipodi:namedview
     id="base"
     pagecolor="#ffffff"
     bordercolor="#666666"
     borderopacity="1.0"
     inkscape:pageopacity="0.0"
     inkscape:pageshadow="2"
     inkscape:zoom="0.98994949"
     inkscape:cx="-2.1445412"
     inkscape:cy="175.36376"
     inkscape:document-units="px"
     inkscape:current-layer="layer1"
     showgrid="false"
     inkscape:window-width="1680"
     inkscape:window-height="973"
     inkscape:window-x="0"
     inkscape:window-y="24"
     inkscape:window-maximized="1"
     fit-margin-top="0"
     fit-margin-left="0"
     fit-margin-right="0"
     fit-margin-bottom="0" />
  <metadata
     id="metadata4365">
    <rdf:RDF>
      <cc:Work
         rdf:about="">
        <dc:format>image/svg+xml</dc:format>
        <dc:type
           rdf:resource="http://purl.org/dc/dcmitype/StillImage" />
        <dc:title></dc:title>
      </cc:Work>
    </rdf:RDF>
  </metadata>
  <g
     inkscape:label="Layer 1"
     inkscape:groupmode="layer"
     id="layer1"
     transform="translate(-293.57095,-288.34909)">
    <path
       style="fill:none;stroke:#000000;stroke-width:15;stroke-linecap:butt;stroke-linejoin:miter;stroke-miterlimit:4;stroke-opacity:1;stroke-dasharray:none"
       d="m 392.62782,330.61608 c 6.76453,-14.89445 40.54734,-36.15531 81.63416,-34.69566 14.68427,-0.13951 40.02905,2.29813 57.0266,5.85173 14.69976,3.48723 13.72687,2.70065 46.58542,11.37611 10.6842,3.11907 20.49218,4.38836 35.25676,16.12159 38.67224,33.26252 52.2051,91.69642 55.61924,105.7709 5.91354,22.91191 4.86985,46.75145 3.81003,70.59314 -2.45518,15.75583 -0.99989,21.19849 -16.59514,54.26276 -7.94284,13.95318 -15.21618,23.04623 -25.2506,33.17982 -34.67552,24.6925 -44.09856,34.65303 -57.85715,47.14286 -7.88176,10.03142 -5.86467,17.33212 0,23.57142 5.49072,2.76809 10.91023,5.58366 15,9.28572 7.89625,10.93842 1.85781,19.87769 -2.85714,25 -10.30129,10.18513 -24.45207,14.30385 -34.64286,13.75 -18.85885,-11.71574 -27.43607,-29.97786 -33.92857,-48.57143 -3.60298,-16.36099 0.1534,-31.61347 8.92857,-40.35714 12.60391,-15.3949 22.25632,-30.00965 25.84735,-38.01034 5.63375,-7.95093 7.75776,-24.63299 -9.3925,-22.04043 -18.76813,3.99564 -55.97868,34.22677 -61.56985,84.15855 -93.11173,9.9185 -95.71974,-35.88024 -130.2942,-75.47753"
       id="path4379"
       inkscape:connector-curvature="0"
       sodipodi:nodetypes="cccccccccccccccccccc" />
    <path
       style="fill:none;stroke:#000000;stroke-width:15;stroke-linecap:round;stroke-linejoin:miter;stroke-miterlimit:4;stroke-opacity:1;stroke-dasharray:none"
       d="m 392.94934,330.10311 c -4.33817,6.16621 -18.18093,24.04942 -32.76317,44.03316 -19.85435,27.20872 -41.07956,58.31139 -41.55228,69.03575 -15.67963,74.22644 -12.57678,118.93628 -17.45976,138.32271 -2.15114,31.0026 29.89914,-14.21191 43.31402,-10.67584 104.40638,18.47446 115.6888,-55.96232 133.314,-58.88832 17.83312,-2.90352 27.83382,-11.81969 32.32489,-22.72843 5.60168,-12.16997 6.82036,-27.09777 11.11167,-41.92133"
       id="path4889"
       inkscape:connector-curvature="0"
       sodipodi:nodetypes="cscccccc" />
    <path
       sodipodi:type="arc"
       style="fill:#000000;fill-opacity:1;stroke:#000000;stroke-width:15;stroke-linecap:round;stroke-linejoin:round;stroke-miterlimit:4;stroke-opacity:1;stroke-dasharray:none"
       id="path4893"
       sodipodi:cx="597.37897"
       sodipodi:cy="449.42737"
       sodipodi:rx="6.1871843"
       sodipodi:ry="6.1871843"
       d="m 603.56615,449.42737 c 0,3.41709 -2.7701,6.18718 -6.18718,6.18718 -3.41709,0 -6.18719,-2.77009 -6.18719,-6.18718 0,-3.41709 2.7701,-6.18719 6.18719,-6.18719 3.41708,0 6.18718,2.7701 6.18718,6.18719 z"
       transform="translate(6.5659916,6.5659916)" />
    <path
       style="fill:#ffffff;stroke:#000000;stroke-width:8;stroke-linecap:round;stroke-linejoin:round;stroke-miterlimit:4;stroke-opacity:1;stroke-dasharray:none"
       d="m 606.09153,519.00164 c -15.50894,1.62014 -19.25974,13.7736 -18.68782,29.7995 15.31769,15.45066 35.02665,14.98348 53.15935,17.38998 14.0186,1.86049 26.60429,2.48772 39.77468,1.80292 -27.92791,-10.90368 -50.92162,-16.27194 -74.24621,-48.9924 z"
       id="path4895"
       inkscape:connector-curvature="0"
       sodipodi:nodetypes="ccscc" />
    <path
       style="fill:#ffffff"
       d="m 589.26508,273.89884 c -2.75,-0.33644 -9.33929,-1.13715 -14.64286,-1.77934 -16.70509,-2.02278 -25.66429,-4.8976 -33.84265,-10.85938 l -3.4855,-2.54082 0.36236,-5.76402 c 0.55355,-8.80505 2.93237,-13.31261 8.54448,-16.19067 1.45756,-0.74748 2.78743,-1.35906 2.95525,-1.35906 0.16783,0 2.071,2.16964 4.22926,4.82143 11.16425,13.71715 23.37759,23.31166 39.45108,30.99183 6.7358,3.21847 6.98004,3.40951 4.28572,3.35236 -1.57143,-0.0333 -5.10714,-0.33589 -7.85714,-0.67233 l 0,0 z"
       id="path2988"
       inkscape:connector-curvature="0"
       transform="translate(54.526388,288.34909)" />
    <path
       style="fill:#0099ff;fill-opacity:1;stroke:#0099ff;stroke-width:3.03045774000000012;stroke-linecap:square;stroke-linejoin:miter;stroke-miterlimit:4;stroke-opacity:1;stroke-dasharray:none"
       d="m 253.53196,410.78112 c -6.62377,-6.15836 -11.22456,-12.34789 -15.24378,-20.50777 -7.1681,-14.5528 -8.36894,-18.55377 -8.33757,-27.7792 0.0375,-11.00569 2.00398,-15.14857 15.53572,-32.7288 12.32844,-16.01695 21.89392,-32.51379 23.50542,-40.538 3.47761,-17.31632 -9.44321,-27.07531 -27.54798,-20.80672 -10.87297,3.76464 -21.14527,11.17974 -32.86002,23.72014 -12.79295,13.69459 -22.63225,31.98758 -26.9683,50.13881 l -2.12483,8.89474 -9.12978,0.67852 c -10.95397,0.81408 -26.3597,-0.64656 -37.41407,-3.54728 -18.47644,-4.84832 -30.36677,-14.68765 -47.729712,-39.49667 -5.694735,-8.13692 -10.796006,-15.22061 -10.796006,-15.51005 0,-0.28944 5.122788,-0.33685 10.843821,-0.33685 5.721033,0 12.198636,-0.29256 14.394674,-0.65015 33.705673,-5.48821 52.897873,-17.78375 76.155313,-48.78914 7.54599,-10.05986 8.99332,-11.48302 12.62691,-12.4161 14.22821,-3.65369 23.60213,-9.15343 29.79674,-17.48191 3.77485,-5.07518 7.93007,-14.32207 10.04392,-22.35139 2.3493,-8.92365 7.19482,-31.41513 7.19482,-33.39621 0,-3.0044 -4.12692,-6.50482 -7.66902,-6.50482 -6.00312,0 -7.02546,1.75911 -11.00766,18.94053 -4.10598,17.71552 -7.5946,28.33164 -10.78049,32.80581 -4.27409,6.00239 -10.81799,9.53715 -23.88562,12.90206 -5.78783,1.49036 -10.49195,5.93535 -21.3282,20.15337 -9.95323,13.05942 -20.07487,22.99781 -28.68579,28.16642 -16.82805,10.10086 -38.017992,14.42655 -60.287933,12.30711 -26.629986,-2.53438 -25.478239,-2.54451 -31.643778,0.27817 -3.114503,1.42587 -9.201194,5.26956 -13.525981,8.54154 -11.215929,8.48559 -11.790255,10.56812 -11.048985,5.92511 0.346212,-2.16853 2.549638,-18.22098 3.696107,-32.94395 3.175096,-40.77467 5.354568,-58.08844 11.253553,-89.3985 3.649855,-19.37235 5.691045,-24.06285 19.781702,-45.45686 19.128479,-29.043006 58.908145,-82.502215 65.729875,-88.333249 9.09228,-7.771843 28.11789,-15.698538 43.64078,-18.182187 14.76556,-2.362477 45.00097,-1.038866 68.95953,3.018831 14.60549,2.473631 58.21892,13.317087 67.27941,16.727449 16.85508,6.344236 31.63966,20.670525 45.24002,43.837668 14.98261,25.521698 27.13773,62.521588 29.70415,90.418678 1.43666,15.61674 0.67432,43.58186 -1.5314,56.17585 -1.88682,10.77322 -9.14364,31.60417 -12.21987,35.07757 -0.17035,0.19234 -3.00346,-1.08603 -6.2958,-2.84082 -9.38772,-5.00361 -21.80765,-15.42835 -28.60085,-24.0063 -3.41824,-4.31628 -6.87728,-8.23227 -7.68677,-8.7022 -4.02913,-2.33901 -15.11781,2.55802 -19.50451,8.61368 -3.55643,4.90951 -4.73106,8.81047 -5.65747,18.78862 l -0.68286,7.35498 4.45203,4.26177 c 8.69453,8.32294 24.06302,13.66645 44.41127,15.44145 4.40066,0.38387 7.99764,0.98018 7.99331,1.32513 -0.0272,2.15793 -15.09123,16.98082 -23.64427,23.26567 -13.96664,10.2628 -23.1862,17.77484 -37.69574,30.71426 -9.78674,8.7277 -12.93422,12.20135 -15.13914,16.70804 -3.71153,7.5861 -3.72789,15.21677 -0.0461,21.49926 3.0999,5.28959 4.4336,6.4888 12.71701,11.43466 6.87703,4.10613 8.8954,6.95913 7.85523,11.1035 -1.82291,7.26303 -15.45394,16.3675 -25.94518,17.32937 -5.32269,0.488 -5.59974,0.38304 -10.14584,-3.84364 l -5e-5,0 z m 63.70536,-230.95009 c 10.50853,-5.63579 8.80992,-21.70787 -2.69555,-25.50502 -7.05902,-2.32969 -15.16088,1.74141 -17.48597,8.78651 -3.98619,12.07826 8.91142,22.76273 20.18152,16.71851 z"
       id="path3843"
       inkscape:connector-curvature="0"
       transform="translate(293.57095,288.34909)"
       sodipodi:nodetypes="cssssssscssssssssssssssssssssssssssssssssssssscsscsssssssccccssc" />
  </g>
</svg>
