<?xml version="1.0" encoding="UTF-8" standalone="no"?>
<!-- Created with Inkscape (http://www.inkscape.org/) -->

<svg
   xmlns:dc="http://purl.org/dc/elements/1.1/"
   xmlns:cc="http://creativecommons.org/ns#"
   xmlns:rdf="http://www.w3.org/1999/02/22-rdf-syntax-ns#"
   xmlns:svg="http://www.w3.org/2000/svg"
   xmlns="http://www.w3.org/2000/svg"
   xmlns:sodipodi="http://sodipodi.sourceforge.net/DTD/sodipodi-0.dtd"
   xmlns:inkscape="http://www.inkscape.org/namespaces/inkscape"
   width="480.85715"
   height="613.55786"
   id="svg3788"
   version="1.1"
   inkscape:version="0.48.3.1 r9886"
   sodipodi:docname="Green_Boat.svg">
  <defs
     id="defs3790" />
  <sodipodi:namedview
     id="base"
     pagecolor="#00ffff"
     bordercolor="#666666"
     borderopacity="1.0"
     inkscape:pageopacity="0"
     inkscape:pageshadow="2"
     inkscape:zoom="1.979899"
     inkscape:cx="29.901557"
     inkscape:cy="163.15373"
     inkscape:document-units="px"
     inkscape:current-layer="layer1"
     showgrid="false"
     inkscape:window-width="1680"
     inkscape:window-height="973"
     inkscape:window-x="0"
     inkscape:window-y="24"
     inkscape:window-maximized="1"
     fit-margin-top="0"
     fit-margin-left="0"
     fit-margin-right="0"
     fit-margin-bottom="0" />
  <metadata
     id="metadata3793">
    <rdf:RDF>
      <cc:Work
         rdf:about="">
        <dc:format>image/svg+xml</dc:format>
        <dc:type
           rdf:resource="http://purl.org/dc/dcmitype/StillImage" />
        <dc:title />
      </cc:Work>
    </rdf:RDF>
  </metadata>
  <g
     inkscape:label="Layer 1"
     inkscape:groupmode="layer"
     id="layer1"
     transform="translate(-128.14286,-70.576465)">
    <path
       style="fill:#00bf00;fill-opacity:1;stroke:#000000;stroke-width:18;stroke-linecap:butt;stroke-linejoin:round;stroke-miterlimit:4;stroke-opacity:1;stroke-dasharray:none"
       d="m 137.14286,576.6479 462.85714,0 c -76.37737,100.157 -93.92817,97.57745 -230.49217,98.40953 -126.04205,0.76798 -167.80925,-2.36453 -232.36497,-98.40953 z"
       id="path3800"
       inkscape:connector-curvature="0"
       sodipodi:nodetypes="ccsc" />
    <path
       style="fill:none;stroke:#000000;stroke-width:15;stroke-linecap:round;stroke-linejoin:round;stroke-miterlimit:4;stroke-opacity:1;stroke-dasharray:none"
       d="M 378.57143,548.07646 380,78.076465 146.97257,546.87315 z"
       id="path4312"
       inkscape:connector-curvature="0"
       sodipodi:nodetypes="cccc" />
    <path
       style="fill:none;stroke:#000000;stroke-width:15;stroke-linecap:round;stroke-linejoin:round;stroke-miterlimit:4;stroke-opacity:1;stroke-dasharray:none"
       d="m 407.772,547.36218 -1.42857,-340 177.31314,340.22526 z"
       id="path4312-1"
       inkscape:connector-curvature="0"
       sodipodi:nodetypes="cccc" />
    <path
       sodipodi:type="arc"
       style="fill:#00bf00;fill-opacity:1;stroke:#00bf00;stroke-width:12;stroke-linecap:round;stroke-linejoin:round;stroke-miterlimit:4;stroke-opacity:1;stroke-dasharray:none"
       id="path4332"
       sodipodi:cx="311.78571"
       sodipodi:cy="367.71933"
       sodipodi:rx="9.6428576"
       sodipodi:ry="9.6428576"
       d="m 321.42856,367.71933 c 0,5.3256 -4.31725,9.64286 -9.64285,9.64286 -5.32561,0 -9.64286,-4.31726 -9.64286,-9.64286 0,-5.3256 4.31725,-9.64286 9.64286,-9.64286 5.3256,0 9.64285,4.31726 9.64285,9.64286 z"
       transform="translate(-25,35)" />
    <path
       style="fill:none;stroke:#00bf00;stroke-width:10;stroke-linecap:butt;stroke-linejoin:miter;stroke-miterlimit:4;stroke-opacity:1;stroke-dasharray:none"
       d="m 286.42857,403.79075 0,89.28572"
       id="path4334"
       inkscape:connector-curvature="0" />
    <path
       style="fill:none;stroke:#00bf00;stroke-width:10;stroke-linecap:round;stroke-linejoin:miter;stroke-miterlimit:4;stroke-opacity:1;stroke-dasharray:none"
       d="m 272.14285,433.79075 29.28572,0"
       id="path4336"
       inkscape:connector-curvature="0"
       sodipodi:nodetypes="cc" />
    <path
       style="fill:none;stroke:#00bf00;stroke-width:10;stroke-linecap:round;stroke-linejoin:round;stroke-miterlimit:4;stroke-opacity:1;stroke-dasharray:none"
       d="m 237.85714,465.93361 c 22.51843,41.29636 74.87464,41.27142 96.42857,0"
       id="path4338"
       inkscape:connector-curvature="0"
       sodipodi:nodetypes="cc" />
    <path
       style="fill:#00bf00;fill-opacity:1;stroke:#00bf00;stroke-width:1px;stroke-linecap:butt;stroke-linejoin:miter;stroke-opacity:1"
       d="m 228.18891,451.24929 -0.0591,20.86036 19.34884,-13.00322 z"
       id="path4340"
       inkscape:connector-curvature="0"
       sodipodi:nodetypes="cccc" />
    <path
       style="fill:#00bf00;fill-opacity:1;stroke:#00bf00;stroke-width:1px;stroke-linecap:butt;stroke-linejoin:miter;stroke-opacity:1"
       d="m 344.73343,450.92963 0.0591,20.86036 -19.34884,-13.00322 z"
       id="path4340-7"
       inkscape:connector-curvature="0"
       sodipodi:nodetypes="cccc" />
    <path
       style="fill:#ffffff;stroke:#ffffff;stroke-width:1.02;stroke-linejoin:miter;stroke-miterlimit:4;stroke-opacity:1;stroke-dasharray:none"
       d="m 118.61805,469.13978 c -47.780218,-0.25462 -86.939011,-0.52726 -87.019544,-0.60585 -0.08053,-0.0786 43.875835,-88.69895 97.680814,-196.93413 l 97.82724,-196.791236 8.54964,0 8.54964,0 -0.28633,9.217642 c -0.15748,5.069703 -0.40228,71.834474 -0.54401,148.366154 -0.14172,76.53168 -0.40446,161.25191 -0.58386,188.26718 l -0.3262,49.11867 -18.48714,-0.0877 c -10.16792,-0.0483 -57.58004,-0.29607 -105.36025,-0.5507 z m 50.11091,-38.71415 c 5.73937,-1.12267 12.2129,-3.41114 16.64311,-5.88355 9.3217,-5.20222 18.26504,-14.07617 23.51039,-23.32797 0.82685,-1.45841 1.71791,-2.65166 1.98015,-2.65166 0.26223,0 1.65803,0.7955 3.10177,1.76777 1.44374,0.97227 2.79848,1.76777 3.01053,1.76777 0.21205,0 0.38555,-5.1139 0.38555,-11.36422 0,-6.25032 -0.10015,-11.36421 -0.22256,-11.36421 -0.53462,0 -20.27663,8.19214 -20.66945,8.57699 -0.24165,0.23675 0.82902,1.26776 2.39912,2.31025 1.55954,1.03547 2.83552,2.04274 2.83552,2.23837 0,0.19563 -1.56642,2.7204 -3.48095,5.6106 -7.67185,11.58157 -18.6108,19.34484 -30.90103,21.93017 -1.96063,0.41243 -3.66356,0.74987 -3.7843,0.74987 -0.12073,0 -0.21951,-11.80025 -0.21951,-26.22277 l 0,-26.22278 6.30084,-0.16746 c 5.76497,-0.15322 6.39857,-0.2653 7.44988,-1.31791 0.88528,-0.88638 1.14903,-1.72369 1.14903,-3.64777 0,-1.92409 -0.26375,-2.7614 -1.14903,-3.64778 -1.05131,-1.05261 -1.68491,-1.16469 -7.44988,-1.31791 l -6.30084,-0.16746 0,-5.41319 0,-5.41318 1.8447,-0.66705 c 2.53923,-0.9182 6.06,-4.2912 7.66603,-7.34428 1.161,-2.20707 1.3391,-3.15026 1.3391,-7.09135 0,-3.94825 -0.1762,-4.87759 -1.34067,-7.07106 -6.17428,-11.6303 -22.2472,-11.69572 -28.1549,-0.11459 -1.49648,2.93362 -1.72539,3.87024 -1.72353,7.05206 0.004,5.98725 2.55775,10.63717 7.4793,13.61567 l 2.75979,1.67021 0.0144,5.42957 0.0143,5.42957 -5.44345,0 c -6.07604,0 -7.30231,0.46751 -8.45357,3.22287 -0.89721,2.14733 -0.4172,4.11868 1.36881,5.6215 1.39234,1.17158 1.8696,1.25716 7.01113,1.25716 l 5.51708,0 0,26.26396 c 0,14.59724 -0.19559,26.26397 -0.44031,26.26397 -0.24217,0 -2.57445,-0.54137 -5.18283,-1.20304 -8.36611,-2.12224 -15.52182,-6.03438 -21.82856,-11.93402 -3.55131,-3.32208 -8.77839,-9.89142 -10.40082,-13.07163 l -0.94732,-1.8569 2.98494,-1.93271 c 1.64172,-1.06299 2.98494,-2.10432 2.98494,-2.31408 0,-0.38191 -19.80402,-8.5988 -20.724497,-8.5988 -0.300405,0 -0.488702,4.37865 -0.488702,11.36422 0,6.25032 0.192257,11.36421 0.427234,11.36421 0.234982,0 1.639365,-0.87206 3.120855,-1.93792 l 2.69361,-1.93791 2.85642,4.33703 c 9.64091,14.63827 23.17306,24.08512 39.13667,27.32145 6.23231,1.26349 14.98263,1.27987 21.32156,0.0399 l 0,2e-5 z"
       id="path4617"
       inkscape:connector-curvature="0"
       transform="translate(128.14286,70.576465)" />
    <path
       style="fill:#ffffff;stroke:#ffffff;stroke-width:3.51500000000000012;stroke-linejoin:round;stroke-miterlimit:4;stroke-opacity:1;stroke-dasharray:none;stroke-linecap:butt"
       d="m 287.38595,463.08595 c -0.28302,-6.21319 -1.42903,-293.39749 -1.17184,-293.65469 0.1,-0.1 134.36529,257.17504 154.03663,295.16021 l 2.42449,4.68166 -77.50373,0 -77.50372,0 -0.28183,-6.18718 z"
       id="path4619"
       inkscape:connector-curvature="0"
       transform="translate(128.14286,70.576465)" />
    <path
       style="fill:#ffffff;stroke:#ffffff;stroke-width:1.3;stroke-linecap:butt;stroke-linejoin:round;stroke-miterlimit:4;stroke-opacity:1;stroke-dasharray:none"
       d="m 229.67463,69.631532 c 1.19876,-2.569576 4.9293,-10.126779 8.29009,-16.793786 l 6.11053,-12.121831 0.0271,16.793786 0.0271,16.793786 -8.31721,0 -8.31722,0 2.17956,-4.671955 z"
       id="path4621"
       inkscape:connector-curvature="0"
       transform="translate(128.14286,70.576465)" />
  </g>
</svg>
