<?xml version="1.0" encoding="UTF-8" standalone="no"?>
<!-- Created with Inkscape (http://www.inkscape.org/) -->

<svg
   xmlns:dc="http://purl.org/dc/elements/1.1/"
   xmlns:cc="http://creativecommons.org/ns#"
   xmlns:rdf="http://www.w3.org/1999/02/22-rdf-syntax-ns#"
   xmlns:svg="http://www.w3.org/2000/svg"
   xmlns="http://www.w3.org/2000/svg"
   xmlns:sodipodi="http://sodipodi.sourceforge.net/DTD/sodipodi-0.dtd"
   xmlns:inkscape="http://www.inkscape.org/namespaces/inkscape"
   width="433.6875"
   height="348.64362"
   id="svg2"
   version="1.1"
   inkscape:version="0.48.3.1 r9886"
   sodipodi:docname="New document 1">
  <defs
     id="defs4" />
  <sodipodi:namedview
     id="base"
     pagecolor="#ffffff"
     bordercolor="#666666"
     borderopacity="1.0"
     inkscape:pageopacity="0.0"
     inkscape:pageshadow="2"
     inkscape:zoom="0.98994949"
     inkscape:cx="-26.477236"
     inkscape:cy="89.377327"
     inkscape:document-units="px"
     inkscape:current-layer="layer1"
     showgrid="false"
     fit-margin-top="0"
     fit-margin-left="0"
     fit-margin-right="0"
     fit-margin-bottom="0"
     inkscape:window-width="1920"
     inkscape:window-height="1003"
     inkscape:window-x="0"
     inkscape:window-y="24"
     inkscape:window-maximized="1" />
  <metadata
     id="metadata7">
    <rdf:RDF>
      <cc:Work
         rdf:about="">
        <dc:format>image/svg+xml</dc:format>
        <dc:type
           rdf:resource="http://purl.org/dc/dcmitype/StillImage" />
        <dc:title></dc:title>
      </cc:Work>
    </rdf:RDF>
  </metadata>
  <g
     inkscape:label="Layer 1"
     inkscape:groupmode="layer"
     id="layer1"
     transform="translate(-131.33201,-203.2674)">
    <path
       style="fill:#999999;fill-opacity:1;stroke:none"
       d="m 212.10062,551.21196 -22.85715,-0.37226 -6.07143,-9.72599 c -14.07431,-22.54605 -24.62771,-42.35597 -32.80862,-61.5855 -2.79979,-6.58101 -12.03353,-37.26298 -15.10757,-50.19958 -3.4524,-14.52885 -4.60249,-29.90825 -3.54547,-47.41095 2.79979,-46.36035 14.61023,-73.65328 45.93985,-106.16313 11.62144,-12.05924 23.31464,-21.85467 37.11384,-31.0904 18.65987,-12.48895 29.55224,-17.50005 59.73822,-27.48298 16.03905,-5.30433 19.80596,-6.27228 32.85714,-8.44298 25.1618,-4.18495 39.10301,-5.43343 61.08351,-5.4702 26.94682,-0.0451 47.22286,2.49719 66.87196,8.3846 27.05292,8.10579 42.53801,14.65549 59.07477,24.98674 18.09964,11.30766 29.84505,21.94678 42.09372,38.12894 17.5013,23.12159 26.12417,44.17723 28.12603,68.67912 1.75246,21.44948 -2.33762,65.38979 -7.9685,85.60659 -2.15977,7.75436 -5.02583,14.65711 -11.12155,26.78572 -19.08008,37.96346 -33.29895,59.80674 -42.97152,66.01361 -3.14461,2.01789 -3.93536,2.20067 -9.52058,2.20067 -7.09748,0 -9.3206,-1.17435 -10.54093,-5.5682 -1.85837,-6.6912 -0.20226,-15.36295 7.12135,-37.28894 6.76415,-20.25102 7.85346,-25.59676 7.83951,-38.47176 -0.0116,-10.71885 -1.03756,-16.55822 -3.9025,-22.21192 -2.30853,-4.55565 -5.30724,-6.76747 -13.20471,-9.73965 l -6.43789,-2.42286 -7.63416,1.47324 c -9.54156,1.84133 -15.16065,4.36598 -20.39896,9.16524 -13.14683,12.04489 -18.04517,28.53887 -16.33414,55.0012 1.21525,18.7948 3.71028,29.30684 13.32365,56.13508 3.23776,9.03572 6.21243,17.26094 6.61038,18.27827 l 0.72354,1.84969 -25.11733,0.47064 c -13.81453,0.25885 -31.14411,0.47113 -38.51018,0.47173 l -13.39286,10e-4 -0.004,-1.60714 c -0.0144,-6.28842 -1.64996,-30.28375 -2.54393,-37.32143 -1.96959,-15.50533 -5.12267,-32.76289 -7.01715,-38.40644 -3.7343,-11.12429 -7.38033,-14.31122 -17.83605,-15.59016 -7.12104,-0.87105 -9.81442,-0.29984 -20.55803,4.35992 -7.44453,3.22887 -25.69649,13.25544 -34.95319,19.20127 -10.19618,6.54927 -20.36166,17.05362 -22.85583,23.61772 -1.73181,4.55778 -1.71625,7.27169 0.0903,15.74626 2.95245,13.85012 4.16125,20.49099 4.6481,25.53572 l 0.49976,5.17857 -18.84229,-0.16346 c -10.36336,-0.0899 -29.12811,-0.33098 -41.69953,-0.53571 z M 373.82451,341.91113 c 2.00631,-27.10642 4.03751,-34.55056 14.06822,-51.55848 8.02,-13.59859 19.00125,-23.39975 37.79243,-33.73108 4.81242,-2.64585 8.02283,-4.80593 7.44023,-5.00605 -0.56362,-0.19362 -10.02477,-2.27925 -21.02477,-4.63475 -30.01762,-6.42786 -48.95645,-7.39463 -65,-3.31806 -13.53501,3.43917 -19.72827,7.91302 -23.06364,16.66057 -1.90404,4.99365 -1.76104,9.15737 0.74112,21.57929 1.25882,6.24935 2.35199,9.15089 6.59332,17.5 7.15702,14.08876 12.03192,21.02834 32.10392,45.70104 5.582,6.86143 8.6829,10.1465 8.99722,9.53156 0.26379,-0.51608 0.87217,-6.2419 1.35195,-12.72404 l 0,0 z m 99.07049,-36.0841 c 3.56827,-2.72165 4.77257,-5.53183 4.42572,-10.32714 -0.49915,-6.90058 -4.53055,-10.78871 -11.24013,-10.84068 -9.45732,-0.0733 -14.95989,8.9402 -10.54945,17.28047 3.34985,6.33467 11.70337,8.20482 17.36386,3.88735 l 0,0 z"
       id="path3774"
       inkscape:connector-curvature="0" />
  </g>
</svg>
