<?xml version="1.0" encoding="UTF-8" standalone="no"?>
<!-- Created with Inkscape (http://www.inkscape.org/) -->

<svg
   xmlns:dc="http://purl.org/dc/elements/1.1/"
   xmlns:cc="http://creativecommons.org/ns#"
   xmlns:rdf="http://www.w3.org/1999/02/22-rdf-syntax-ns#"
   xmlns:svg="http://www.w3.org/2000/svg"
   xmlns="http://www.w3.org/2000/svg"
   xmlns:sodipodi="http://sodipodi.sourceforge.net/DTD/sodipodi-0.dtd"
   xmlns:inkscape="http://www.inkscape.org/namespaces/inkscape"
   width="575.02521"
   height="537.72345"
   id="svg8595"
   version="1.1"
   inkscape:version="0.48.3.1 r9886"
   sodipodi:docname="Yellow_King.svg">
  <defs
     id="defs8597" />
  <sodipodi:namedview
     id="base"
     pagecolor="#ffffff"
     bordercolor="#666666"
     borderopacity="1.0"
     inkscape:pageopacity="0.0"
     inkscape:pageshadow="2"
     inkscape:zoom="0.49497475"
     inkscape:cx="-15.223332"
     inkscape:cy="-177.56011"
     inkscape:document-units="px"
     inkscape:current-layer="layer1"
     showgrid="false"
     inkscape:window-width="1680"
     inkscape:window-height="973"
     inkscape:window-x="0"
     inkscape:window-y="24"
     inkscape:window-maximized="1"
     fit-margin-top="0"
     fit-margin-left="0"
     fit-margin-right="0"
     fit-margin-bottom="0" />
  <metadata
     id="metadata8600">
    <rdf:RDF>
      <cc:Work
         rdf:about="">
        <dc:format>image/svg+xml</dc:format>
        <dc:type
           rdf:resource="http://purl.org/dc/dcmitype/StillImage" />
        <dc:title />
      </cc:Work>
    </rdf:RDF>
  </metadata>
  <g
     inkscape:label="Layer 1"
     inkscape:groupmode="layer"
     id="layer1"
     transform="translate(-82.682658,-245.84675)">
    <path
       style="fill:none;stroke:#000000;stroke-width:18;stroke-linecap:round;stroke-linejoin:miter;stroke-miterlimit:4;stroke-opacity:1;stroke-dasharray:none"
       d="m 130.30968,425.05745 c 24.24366,69.70053 62.89588,141.80248 72.73098,209.10158 -4.51377,22.04085 -29.2677,50.82071 -30.30457,62.62946 -11.28645,41.87709 -12.08734,50.43106 -11.11168,77.78174 l 412.14224,0 c 2.43247,-30.87435 -4.77205,-60.88835 -17.1726,-89.90357 -8.3726,-16.54082 -24.46938,-32.12507 -26.26396,-50.50763 1.21413,-37.42314 40.52618,-125.6435 77.78174,-211.12188 21.51009,-15.29777 25.55501,15.6881 33.84011,23.23351 10.21655,-29.09279 9.97452,-71.86256 -8.58629,-120.20816 -53.21556,17.53787 -87.35759,40.21092 -105.56095,67.17515 38.32183,-5.62069 40.46218,2.64899 36.87057,13.63706 l -70.71068,79.80205 -25.25381,-147.48227 c 9.79147,-15.31966 17.51313,-3.54272 32.82996,12.12183 9.74655,-44.02522 -31.62229,-79.31079 -60.10407,-95.9645 -32.72914,21.58473 -65.57418,49.21038 -57.57871,92.93404 11.81317,-7.66041 20.17548,-24.66019 34.34519,-13.13198 L 370.72598,479.60569 318.19805,339.69956 c 12.19671,-18.18174 26.50956,0.2117 38.89087,7.57615 6.35144,-40.26503 -41.4864,-74.03669 -65.15483,-92.42896 -63.42388,51.49958 -55.82928,76.98104 -59.09393,98.48987 10.95899,-11.76888 20.80276,-27.12699 41.92133,-13.13198 L 245.46707,485.6666 173.74624,405.86455 c -5.05943,-16.84058 26.3911,-14.54421 37.37564,-12.6269 -24.00084,-38.37862 -60.57352,-58.88936 -98.99495,-67.17515 -27.874281,44.11325 -21.163797,94.0578 -14.899748,120.46069 11.229168,-30.49972 30.587138,-31.94773 33.082498,-21.46574 z"
       id="path8614"
       inkscape:connector-curvature="0"
       sodipodi:nodetypes="cccccccccccccccccccccccccccccc" />
    <rect
       style="fill:#ffff00;fill-opacity:1;stroke:#ffff00;stroke-opacity:1"
       id="rect9124"
       width="63.035717"
       height="217.85715"
       x="339.87747"
       y="526.17871"
       ry="3.5651002" />
    <rect
       style="fill:#ffff00;fill-opacity:1;stroke:#ffff00;stroke-opacity:1"
       id="rect9124-8"
       width="63.035717"
       height="217.85715"
       x="607.22211"
       y="-478.21429"
       ry="3.5651002"
       transform="matrix(0,1,-1,0,0,0)" />
    <path
       style="fill:#ffffff;stroke:#ffffff;stroke-width:4;stroke-miterlimit:4;stroke-opacity:1;stroke-dasharray:none"
       d="m 88.547802,510.88935 c 0,-10.10818 2.522049,-25.16231 7.536189,-44.98358 4.554099,-18.00268 4.351919,-17.52629 15.576629,-36.70258 9.946,-16.99172 14.34454,-26.05065 16.87461,-34.75377 1.47213,-5.06398 1.46927,-6.33044 -0.0343,-15.15086 C 123.23054,348.37883 112.1801,315.28448 84.026599,246.10468 75.886958,226.10366 66.264064,201.80334 62.642391,192.10398 54.598056,170.56009 54.08212,169.54262 49.887313,166.95009 c -7.3484,-4.54156 -15.8763,-3.74275 -24.904555,2.33281 l -5.121735,3.44668 -0.654777,-2.60884 c -1.265657,-5.04278 0.510003,-36.76854 2.559994,-45.73944 3.519156,-15.40008 11.012145,-33.652499 13.496812,-32.87733 20.97764,6.544626 32.251048,11.60395 45.161652,20.26784 9.255065,6.21077 22.175216,17.31855 25.381046,21.82073 l 1.99881,2.80707 -3.82,0.65243 c -11.003225,1.87926 -16.244633,4.59804 -20.210944,10.48365 -1.787787,2.6529 -2.296882,4.82461 -2.296882,9.79814 l 0,6.38979 43.174826,48.05318 c 34.58476,38.4925 43.32323,47.69268 43.9207,46.24129 0.57362,-1.39347 32.35501,-163.642778 32.35501,-165.081751 0,-1.091155 -13.96837,-11.942137 -18.05389,-12.78305 -4.63114,-0.953218 -11.85534,-0.402536 -17.30145,1.318844 -1.25006,0.395114 -5.06654,4.67848 -5.06654,4.348572 0,-2.743779 8.92413,-19.910579 13.44179,-26.700182 5.64822,-8.488751 21.89616,-26.30611 30.74524,-33.714984 l 4.86016,-4.069153 8.44052,6.748721 c 13.93985,11.14577 24.7185,21.264505 31.09591,29.192091 5.83147,7.248945 12.3142,17.846629 13.63776,22.294461 l 0.6435,2.162454 -4.30354,-2.129218 c -6.28175,-3.107961 -15.53846,-3.475076 -20.73802,-0.822455 -3.55834,1.81533 -13.41031,11.619413 -13.41031,13.345126 0,0.846667 62.71204,168.019334 63.22503,168.540154 0.22802,0.23148 0.60224,0.23148 0.83161,0 0.22936,-0.2315 12.0665,-35.87726 26.30474,-79.2128 14.23825,-43.33555 27.20052,-82.768415 28.80506,-87.628599 l 2.91734,-8.836699 -7.23004,-4.295284 c -6.52316,-3.875338 -7.87405,-4.295285 -13.81726,-4.295285 -5.07486,0 -7.42631,0.521826 -10.24198,2.272843 -1.69793,1.055913 -4.22862,5.170223 -5.06047,4.696496 -0.15295,-0.0871 -0.218,0.0062 -0.2428,-0.466482 -0.062,-1.179282 3.33552,-16.14015 8.67733,-24.40557 6.87655,-10.640146 22.71143,-25.901501 35.88861,-34.58875 l 4.29315,-2.830322 3.80319,2.516835 c 17.22057,11.396036 33.97567,29.087447 41.40005,43.713577 1.9976,3.935287 5.14258,15.898527 4.89393,15.407455 -0.0863,-0.170526 -2.3718,-1.89119 -4.78974,-3.273457 -5.59694,-3.199613 -12.85187,-3.407398 -17.55179,-0.502693 -4.2545,2.629427 -10.58305,10.360081 -10.58305,12.927744 0,1.097625 6.36396,39.123291 14.14213,84.501471 7.77818,45.37819 14.14214,82.92832 14.14214,83.44475 0,0.51642 0.39572,0.93894 0.87937,0.93894 0.48365,0 19.76477,-21.30433 42.84694,-47.34296 32.37625,-36.52312 42.21648,-48.23936 43.05663,-51.26524 2.40054,-8.64559 0.48603,-16.71147 -4.87223,-20.52689 -4.16079,-2.96274 -10.69287,-5.10987 -15.62019,-5.13445 l -4.16614,-0.0208 5.05076,-4.5181 c 13.15845,-11.77073 39.33264,-26.65649 62.76065,-35.693169 l 10.23271,-3.946976 2.73285,8.908875 c 4.97675,16.22385 7.57859,31.63502 8.27084,48.98963 0.35593,8.92325 0.32113,17.96195 -0.0774,20.086 l -0.7245,3.86192 -3.71689,-3.55973 c -8.20117,-7.85441 -16.84237,-9.01417 -27.23347,-3.65506 l -6.12271,3.15773 -16.6727,38.51107 c -36.76423,84.91912 -51.10147,122.34613 -58.67254,153.16342 -4.07937,16.60467 -5.02556,25.01898 -3.63493,32.32488 1.31121,6.8886 7.35602,19.68757 13.9165,29.46609 12.60443,18.78714 17.70925,30.19631 23.40407,52.30767 3.2213,12.50734 4.84408,23.27979 5.33332,35.40393 l 0.30571,7.57615 -196.72721,0.25508 -196.727208,0.25509 0,-8.46669 z M 319.89514,497.12759 c 0.55476,-0.87853 0.96331,-16.47253 0.97228,-37.11066 l 0.0155,-35.59543 37.1231,-0.26499 37.12311,-0.26498 0.26777,-30.18272 c 0.1901,-21.42769 -0.0656,-30.58433 -0.88131,-31.56727 -0.93411,-1.12555 -7.92857,-1.38454 -37.39086,-1.38454 l -36.24181,0 0,-39.19392 c 0,-29.13729 -0.31103,-39.50495 -1.21218,-40.40611 -0.88851,-0.88851 -9.24062,-1.21218 -31.2792,-1.21218 -28.69251,0 -30.1148,0.0893 -31.1127,1.9539 -0.66828,1.24871 -1.04568,15.83179 -1.04568,40.4061 l 0,38.45221 -38.26212,0 c -31.17337,0 -38.47499,0.2565 -39.41117,1.38454 -0.81577,0.98294 -1.07141,10.13958 -0.88131,31.56727 l 0.26777,30.18272 39.14341,0.2644 39.14342,0.2644 0,35.34347 c 0,34.24502 0.0641,35.40763 2.06382,37.40731 1.99785,1.99785 3.00008,2.05435 31.3526,1.76776 24.71268,-0.2498 29.43827,-0.53279 30.24559,-1.81128 l 0,0 z"
       id="path3256"
       inkscape:connector-curvature="0"
       transform="translate(82.682658,245.84675)"
       sodipodi:nodetypes="cssscsssscssssscssscsssssssscssscsssccsscssssssscssssssssssssscsscssccsscssssssccccccscccscscssssscssscccsssccc" />
    <path
       style="fill:none;stroke:#000000;stroke-width:5;stroke-linecap:butt;stroke-linejoin:miter;stroke-opacity:1;stroke-miterlimit:4;stroke-dasharray:none"
       d="m 258.09398,362.96706 -77.78175,0 0,58.84138 77.78175,0 0,74.49876 60.10407,0 0,-73.99368 75.25637,0 0,-59.09392 -74.75129,0 0,-80.81221 -60.35662,0 z"
       id="path3754"
       inkscape:connector-curvature="0"
       transform="translate(82.682658,245.84675)" />
  </g>
</svg>
